<svg xmlns="http://www.w3.org/2000/svg" xmlns:xlink="http://www.w3.org/1999/xlink" width="211" height="170" viewBox="0 0 211 170">
    <defs>
        <path id="a" d="M150.614 77.952c-2.509-6.836-9.44-5.317-14.68-3.996l-.952.327c2.425 3.612 8.372 3.326 10.226 3.42-6.359 1.463-8.414.035-11.368-2.266 3.209 9.36 9.44 7.03 16.774 2.515zM95.017 40.753c5.153 2.176 2.806 4.908 4.057 7.698-2.05-.655-3.094-3.964-3.394-4.831.18 3.221 1.14 4.002 2.64 5.088-4.888-.237-4.98-3.492-3.303-7.955zm-4.095-17.81c8.808 6.227 3.257 10.405 4.46 16.177-3.589-2.082-4.19-8.745-4.395-10.504-.994 6.143.493 8.01 2.867 10.677-4.287-1.162-6.295-3.144-6.7-5.72-4.992-.81-7.696-7.174-8.736-9.077 1.702 7.492 4.267 8.941 8.218 10.898-11.567 1.384-14.657-3.432-11.246-16.504 8.645-.076 7.613 8.059 11.734 14.469-.347-2.863 1.215-6.434 3.798-10.416zm10.438 8.35c5.653 5.134 1.393 7.592 1.743 11.751-2.343-1.77-2.193-6.505-2.186-7.758-1.227 4.23-.342 5.67 1.097 7.749-6.188-2.518-4.834-6.752-.654-11.741zm.438-20.68c6.857 5.062 1.072 10.87.648 18.403-3.525-3.532-1.879-10.159-1.573-12.266-3.06 6.829-1.91 9.46.02 13.294-9.816-5.693-9.402-11.25.905-19.431zm-17.1 26.08c7.367 2.008 4.687 6.131 6.887 9.679-2.892-.515-4.907-4.801-5.47-5.921.828 4.327 2.27 5.208 4.494 6.407-6.656.564-7.37-3.823-5.911-10.165zm-.037 11.2c5.54.77 3.98 4.016 5.91 6.388-2.15-.104-4.014-3.03-4.528-3.79 1.006 3.066 2.135 3.571 3.864 4.233-4.782 1.034-5.712-2.087-5.246-6.83zM72.598 34.83c10.639 1.781 7.454 7.956 11.047 12.631-4.137-.315-7.574-6.055-8.524-7.55 1.774 5.965 3.925 7 7.222 8.37-9.275 1.735-10.9-4.33-9.745-13.451zm-17.444 4.412c7.354-4.407 12.58 2.11 16.403 7.196l.632 1.004c-4.893 1.517-10.13-3.144-11.899-4.429 4.745 6.043 7.684 6.255 12.091 6.332-9.862 6.201-13.848-.542-17.227-10.103zm17.789 11.582c7.214-2.504 7.33 2.413 11.15 4.099-2.678 1.208-6.761-1.192-7.858-1.798 3.126 3.103 4.814 3.016 7.327 2.749-5.174 4.225-8.241 1.008-10.62-5.05zM61.424 54.83c9.543-3.311 9.698 3.192 14.748 5.421-3.54 1.599-8.942-1.576-10.393-2.377 4.135 4.104 6.367 3.99 9.692 3.636-6.844 5.588-10.902 1.333-14.047-6.68zm15.69 5.75c4.876-2.74 5.598.788 8.569 1.508-1.773 1.219-5.028.019-5.897-.276 2.656 1.832 3.86 1.55 5.638 1.03-3.182 3.718-5.81 1.797-8.31-2.262zm-8.517 6.717c5.79-5.026 7.735-.486 11.924-.34-2.045 2.125-6.747 1.412-7.996 1.256 4.072 1.727 5.613 1.016 7.856-.172-3.246 5.87-7.307 4.016-11.784-.744zm8.318 7.782c.772-3.923 4.662-3.696 7.618-3.43l.545.095c-1.005 2.168-4.255 2.524-5.252 2.736 3.574.245 4.566-.706 5.97-2.208-.934 5.352-4.515 4.626-8.881 2.807zm-28.933-9.494c5.069-6.914 12.414-2.935 17.91.27l.972.68c-3.922 3.296-10.557 1.032-12.686.534 6.717 3.73 9.508 2.784 13.6 1.146-6.684 9.541-12.974 4.872-19.796-2.63zm11.66 12.367c2.509-6.836 9.44-5.317 14.679-3.996l.953.327c-2.425 3.612-8.372 3.326-10.226 3.42 6.359 1.463 8.414.035 11.368-2.266-3.21 9.36-9.44 7.03-16.774 2.515zm55.76-37.685c-5.152 2.176-2.805 4.908-4.056 7.698 2.049-.655 3.094-3.963 3.393-4.831-.179 3.221-1.14 4.002-2.638 5.089 4.887-.239 4.979-3.493 3.302-7.956zm3.931-17.324c-8.807 6.227-3.256 10.405-4.46 16.177 3.59-2.082 4.19-8.745 4.396-10.504.994 6.143-.493 8.01-2.867 10.677 4.287-1.162 6.295-3.144 6.7-5.72 4.992-.81 7.696-7.174 8.736-9.077-1.702 7.492-4.267 8.941-8.218 10.898 11.567 1.384 14.657-3.432 11.246-16.504-8.645-.076-7.613 8.059-11.734 14.469.347-2.863-1.215-6.434-3.799-10.416zm-10.437 8.35c-5.653 5.134-1.393 7.592-1.743 11.751 2.343-1.77 2.193-6.505 2.186-7.758 1.227 4.23.342 5.67-1.097 7.749 6.188-2.518 4.834-6.752.654-11.741zm-.438-20.68c-6.857 5.062-1.072 10.87-.648 18.403 3.524-3.532 1.879-10.159 1.573-12.266 3.06 6.829 1.91 9.46-.02 13.294 9.816-5.693 9.402-11.25-.905-19.431zm17.1 26.08c-7.367 2.008-4.687 6.131-6.887 9.679 2.892-.515 4.906-4.801 5.47-5.921-.828 4.327-2.27 5.208-4.495 6.407 6.656.564 7.371-3.823 5.912-10.165zm.037 11.2c-5.54.77-3.98 4.016-5.91 6.388 2.15-.104 4.014-3.03 4.528-3.79-1.006 3.066-2.135 3.571-3.865 4.233 4.783 1.034 5.713-2.087 5.247-6.83zm12.063-13.063c-10.639 1.781-7.455 7.956-11.047 12.631 4.137-.315 7.574-6.055 8.523-7.55-1.774 5.965-3.924 7-7.221 8.37 9.275 1.735 10.9-4.33 9.745-13.451zm17.444 4.412c-7.354-4.407-12.58 2.11-16.404 7.196l-.63 1.004c4.891 1.517 10.128-3.144 11.897-4.429-4.744 6.043-7.683 6.255-12.09 6.332 9.862 6.201 13.848-.542 17.227-10.103zm-17.789 11.582c-7.214-2.504-7.331 2.413-11.15 4.099 2.677 1.208 6.761-1.192 7.858-1.798-3.127 3.103-4.814 3.016-7.327 2.749 5.174 4.225 8.241 1.008 10.62-5.05zm11.519 4.006c-9.543-3.311-9.698 3.192-14.749 5.421 3.542 1.599 8.942-1.576 10.394-2.377-4.135 4.104-6.367 3.99-9.692 3.636 6.844 5.588 10.901 1.333 14.047-6.68zm-15.69 5.75c-4.876-2.74-5.598.788-8.57 1.508 1.774 1.219 5.029.019 5.898-.276-2.656 1.832-3.861 1.55-5.638 1.03 3.182 3.718 5.81 1.797 8.31-2.262zm8.517 6.717c-5.79-5.026-7.735-.486-11.924-.34 2.045 2.125 6.747 1.412 7.996 1.256-4.072 1.727-5.613 1.016-7.857-.172 3.247 5.87 7.307 4.016 11.785-.744zm-8.318 7.782c-.773-3.923-4.662-3.696-7.618-3.43l-.545.095c1.005 2.168 4.255 2.524 5.252 2.736-3.574.245-4.566-.706-5.97-2.208.934 5.352 4.515 4.626 8.881 2.807zm28.933-9.494c-5.069-6.914-12.414-2.935-17.91.27l-.972.68c3.922 3.296 10.557 1.032 12.686.534-6.717 3.73-9.508 2.784-13.601 1.146 6.685 9.541 12.975 4.872 19.797-2.63z"/>
        <linearGradient id="b" x1="50%" x2="50%" y1="0%" y2="100%">
            <stop offset="0%" stop-color="#529134"/>
            <stop offset="100%" stop-color="#8CBB5E"/>
        </linearGradient>
    </defs>
    <g fill="none" fill-rule="evenodd">
        <path fill="#659642" d="M105.293 3.54c34.043 0 61.651 27.608 61.651 61.651 0 .555-.007 1.107-.022 1.658 2.035-3.27 3.123-4.813 3.545-3.157C169.67 28.386 140.79 0 105.293 0 69.795 0 40.915 28.386 40.118 63.692c.422-1.656 1.51-.113 3.544 3.157a62.754 62.754 0 0 1-.021-1.658c0-34.043 27.608-61.651 61.652-61.651"/>
        <path fill="#136B9D" d="M170.501 68.94c-1.436-6.192-11.219 28.239-42.028 37.3h-.798c-.935 0-1.598-.662-1.598-1.598v-.4c0-3.424 20.768-10.69 20.768-17.58v-2c-1.305.11-20.736 11.56-24.229 13.32-13.942 7.026-16.232 17.06-17.306 31.035-1.075-13.975-3.365-24.01-17.308-31.034-3.492-1.76-22.923-13.211-24.228-13.32v1.998c0 6.89 20.768 14.157 20.768 17.581v.4c0 .936-.663 1.598-1.598 1.598h-.798c-30.81-9.061-40.592-43.492-42.028-37.3.502 21.31 12.975 40.683 30.702 51.79 10.205 6.394 22.275 9.863 34.49 9.863 10.463 0 20.937-2.528 30.068-7.335 20.045-10.555 34.58-31.25 35.123-54.317z"/>
        <path fill="#136B9D" d="M79.735 92.881c10.58-7.8 33.943 13.705 49.77-2.334-7.95 2.3-13.195 3.301-16.586 2.265-.287-.087-.827-.022-.822-.307.043-2.83-3.696-17.527 1.299-21.306 5.672-4.29 7.227-6.496 7.14-6.506-.87-.104-9.15 6.297-10.995.267 0-7.716 1.187-15.118 2.856-16.818-4.053 2.715-5.425 13.167-8.214 13.167-4.405 0-8.077-5.393-8.895-7.332.067 5.601 5.875 9.141 7.144 13.518.488 1.68.82 5.755-1.705 5.755-4.062-.96-6.16-5.6-11.66-6.824 3.3 2.848 17.798 13.348 8.554 21.398l9.558 4.202c-3.918.7-21.134-10.44-27.444.855zm33.132-31.167a2.184 2.184 0 1 1 0 4.368 2.184 2.184 0 0 1 0-4.368zm-14.675 3.494a2.184 2.184 0 1 1 0 4.368 2.184 2.184 0 0 1 0-4.368zm4.63-13.452a3.057 3.057 0 1 1-.001 6.115 3.057 3.057 0 0 1 0-6.115zM5.252 159.464a.13.13 0 0 1-.094-.038c-.026-.023-.041-.064-.041-.12v-.476-1.751c0-.483 0-.89.004-1.22 0-.324.003-.599.007-.818 0-.219.008-.408.011-.566l.023-.445c.015-.393.087-.695.208-.902.12-.204.332-.336.63-.389a6.87 6.87 0 0 1 .362-.053c.106-.011.204-.014.295-.014a.89.89 0 0 0 .305-.042.165.165 0 0 0 .102-.163c0-.079-.038-.131-.117-.162-.08-.03-.2-.041-.358-.041-.223 0-.472.003-.744.01-.268.005-.54.016-.811.023-.272.008-.521.015-.747.024-.227.007-.412.01-.552.01-.21 0-.49-.007-.845-.019-.355-.01-.74-.022-1.162-.03-.423-.01-.837-.018-1.253-.018a.963.963 0 0 0-.355.041c-.079.03-.12.083-.12.162 0 .076.034.132.098.163a.816.816 0 0 0 .287.042c.166 0 .328.003.494.014.162.012.294.03.389.053.245.05.438.129.573.234a.855.855 0 0 1 .295.415c.056.17.094.385.105.642.008.14.016.29.023.445.004.158.011.347.015.566 0 .22.004.494.004.819.004.328.004.736.004 1.219V162.815c0 .698 0 1.35-.004 1.966a65.177 65.177 0 0 1-.03 1.645c-.015.487-.042.89-.08 1.212a4.653 4.653 0 0 1-.109.595 1.18 1.18 0 0 1-.196.43.556.556 0 0 1-.351.22c-.102.022-.22.045-.355.063a4.03 4.03 0 0 1-.46.027c-.132 0-.227.015-.283.05a.144.144 0 0 0-.08.132c0 .079.038.135.117.173a.851.851 0 0 0 .336.053c.23 0 .483-.004.755-.011l.815-.023.747-.022a15.513 15.513 0 0 1 1.408.007c.362.011.773.019 1.23.03.46.011.936.019 1.43.019.14 0 .25-.019.329-.053.083-.038.124-.094.124-.173 0-.057-.03-.102-.087-.132a.573.573 0 0 0-.276-.05c-.116 0-.24-.004-.38-.011l-.408-.034a13.91 13.91 0 0 1-.366-.045.946.946 0 0 1-.517-.215.957.957 0 0 1-.257-.43 2.831 2.831 0 0 1-.11-.578 15.125 15.125 0 0 1-.078-1.226 66.232 66.232 0 0 1-.03-1.653c-.004-.615-.004-1.268-.004-1.966v-1.993c0-.057.015-.094.041-.109.027-.019.06-.03.094-.026h8.65c.037 0 .068.01.094.033a.129.129 0 0 1 .042.102v1.993c0 .698 0 1.35-.004 1.966a53.517 53.517 0 0 1-.03 1.645c-.015.487-.042.89-.08 1.212a4.741 4.741 0 0 1-.109.595c-.046.174-.11.321-.196.43a.555.555 0 0 1-.351.22c-.102.022-.22.045-.355.063-.136.016-.29.027-.46.027-.132 0-.227.015-.283.05a.144.144 0 0 0-.08.132c0 .079.042.135.121.173a.929.929 0 0 0 .355.053c.226 0 .472-.004.744-.011l.807-.023.743-.022a15.513 15.513 0 0 1 1.407.007c.363.011.774.019 1.235.03.456.011.932.019 1.426.019.14 0 .249-.019.329-.053.082-.038.124-.094.124-.173 0-.057-.03-.102-.087-.132a.572.572 0 0 0-.275-.05c-.113 0-.242-.004-.381-.011l-.408-.034a14.12 14.12 0 0 1-.366-.045.946.946 0 0 1-.517-.215.989.989 0 0 1-.257-.43 2.831 2.831 0 0 1-.11-.578 15.125 15.125 0 0 1-.078-1.226 66.233 66.233 0 0 1-.03-1.653c-.004-.615-.004-1.268-.004-1.966v-3.985-1.751c0-.483 0-.89.004-1.22a44.484 44.484 0 0 1 .019-1.384l.022-.445c.015-.393.087-.695.208-.902.12-.204.331-.336.63-.389a6.87 6.87 0 0 1 .362-.053c.106-.011.204-.014.295-.014a.89.89 0 0 0 .305-.042.165.165 0 0 0 .102-.163c0-.079-.038-.131-.117-.162a1.08 1.08 0 0 0-.359-.041c-.222 0-.471.003-.74.01-.27.005-.542.016-.814.023-.268.008-.518.015-.747.024-.227.007-.412.01-.551.01-.155 0-.355-.003-.597-.01-.237-.009-.51-.016-.804-.024-.294-.007-.603-.018-.92-.022-.317-.008-.63-.011-.94-.011a.963.963 0 0 0-.355.041c-.079.03-.12.083-.12.162 0 .076.034.132.098.163a.816.816 0 0 0 .287.042c.166 0 .328.003.494.014.162.012.295.03.389.053.245.05.437.129.573.234.14.102.234.242.294.415.057.17.095.385.106.642.012.14.02.29.023.445.007.158.011.347.015.566 0 .22.004.494.004.819.004.328.004.736.004 1.219v2.227c0 .056-.016.097-.042.12a.125.125 0 0 1-.094.038h-8.65zm124.185 3.35c0 .699 0 1.352-.004 1.967a65.172 65.172 0 0 1-.03 1.645c-.015.487-.042.89-.08 1.212a4.652 4.652 0 0 1-.108.595c-.046.174-.11.321-.197.43a.556.556 0 0 1-.35.22c-.103.022-.22.045-.355.063-.136.016-.291.027-.46.027-.133 0-.227.015-.284.05a.145.145 0 0 0-.079.132c0 .079.038.135.117.173.075.034.189.053.336.053.23 0 .483-.004.755-.011l.803-.023.717-.022c.216-.009.378-.012.487-.012.09 0 .25.003.48.012l.818.022 1.004.023c.35.007.694.01 1.026.01a.85.85 0 0 0 .336-.052c.08-.038.117-.094.117-.173a.15.15 0 0 0-.068-.132c-.045-.035-.113-.05-.204-.05-.094 0-.203-.004-.331-.011-.129-.012-.265-.023-.4-.034-.136-.015-.26-.03-.378-.045-.222-.03-.396-.106-.517-.22a.93.93 0 0 1-.256-.43 2.946 2.946 0 0 1-.11-.595 14.56 14.56 0 0 1-.08-1.212 67.922 67.922 0 0 1-.03-1.653c-.003-.615-.003-1.275-.003-1.981v-.317c0-.068.015-.113.05-.143.03-.027.074-.038.131-.038l1.97.045a.709.709 0 0 1 .223.027.403.403 0 0 1 .185.131c.075.088.192.242.347.457.154.215.336.472.543.767.207.294.43.607.66.935.23.329.465.65.691.967.419.58.804 1.086 1.151 1.52.347.434.68.803.996 1.102.317.298.634.532.955.705.192.106.396.189.607.254.215.063.464.109.755.135.29.027.642.042 1.06.042h2.151a.888.888 0 0 0 .318-.045c.075-.035.113-.095.113-.181a.15.15 0 0 0-.068-.132c-.045-.035-.114-.05-.204-.05-.09 0-.189-.004-.29-.015a5.366 5.366 0 0 1-.706-.136 4.048 4.048 0 0 1-.559-.219 5.262 5.262 0 0 1-.732-.452 7.058 7.058 0 0 1-.883-.785 43.431 43.431 0 0 1-2.2-2.555 394.14 394.14 0 0 1-2.713-3.4c.758-.616 1.354-1.204 1.792-1.766.438-.566.747-1.117.928-1.66.185-.54.272-1.091.269-1.646a3.864 3.864 0 0 0-.151-1.064 4.182 4.182 0 0 0-.88-1.585 2.941 2.941 0 0 0-.51-.453 5.011 5.011 0 0 0-1.305-.626 7.427 7.427 0 0 0-1.419-.283 14.185 14.185 0 0 0-1.441-.064c-.181 0-.407.003-.687.01-.275.005-.57.016-.883.023-.313.008-.611.015-.898.024a16.301 16.301 0 0 1-1.241 0c-.223-.009-.476-.016-.763-.024-.287-.007-.585-.018-.898-.022a38.606 38.606 0 0 0-.925-.011 1.072 1.072 0 0 0-.377.041c-.079.03-.12.083-.12.162 0 .076.034.132.098.163a.815.815 0 0 0 .287.042c.165 0 .328.003.494.014.162.012.294.03.388.053.245.05.438.129.574.234a.855.855 0 0 1 .294.415c.056.17.095.385.106.642.008.14.015.29.022.445.004.158.012.347.016.566 0 .22.003.494.003.819.004.328.004.736.004 1.219V162.815zm2.672-9.079c0-.09.011-.158.041-.211.03-.05.083-.083.163-.106.113-.033.271-.056.471-.071.204-.016.446-.019.729-.019.271-.004.562.038.871.12.314.084.62.223.925.412.306.189.581.445.834.762.25.321.453.713.604 1.185.15.468.226 1.023.23 1.664-.004.615-.068 1.148-.196 1.596-.125.446-.291.816-.491 1.11a2.733 2.733 0 0 1-.65.69 1.973 1.973 0 0 1-.395.23 1.787 1.787 0 0 1-.484.121 7.825 7.825 0 0 1-1.32.012 5.908 5.908 0 0 1-.596-.076 3.704 3.704 0 0 1-.532-.128.284.284 0 0 1-.163-.136.641.641 0 0 1-.04-.272v-6.883zm19.856 8.4c.003 1.087.09 2.016.268 2.786.173.765.411 1.407.713 1.924.302.52.645.951 1.034 1.29.419.37.856.661 1.313.876.46.211.917.366 1.37.464.453.102.883.162 1.283.189.404.026.759.038 1.06.034.491.004.997-.034 1.518-.117a6.542 6.542 0 0 0 1.584-.476 6.643 6.643 0 0 0 1.608-1.038 5.097 5.097 0 0 0 1.14-1.4c.286-.52.501-1.079.648-1.675.148-.596.245-1.211.295-1.845.049-.63.071-1.264.068-1.895v-2.422-1.751a124.085 124.085 0 0 1 .022-2.604l.023-.445c.015-.393.087-.695.208-.902.12-.204.332-.336.63-.389.132-.022.241-.041.336-.053.094-.011.2-.014.32-.014a.894.894 0 0 0 .306-.042.166.166 0 0 0 .102-.163c0-.079-.038-.131-.117-.162a1.08 1.08 0 0 0-.359-.041c-.226 0-.472.003-.735.01-.269.005-.529.016-.785.023-.253.008-.476.015-.665.024-.192.007-.324.01-.396.01l-.253-.01a35.197 35.197 0 0 0-.622-.024c-.257-.007-.536-.018-.838-.022a35.364 35.364 0 0 0-.89-.011.959.959 0 0 0-.355.041c-.08.03-.121.083-.121.162 0 .076.034.132.098.163a.815.815 0 0 0 .287.042c.086 0 .181 0 .283.007.102.004.2.011.294.023.098.007.178.022.238.037.245.05.438.129.574.234.14.102.233.242.294.415.057.17.094.385.105.642a19.127 19.127 0 0 1 .038 1.011c0 .22.004.494.004.819.004.328.004.736.004 1.219V161.66c.004.585-.008 1.147-.03 1.687a11.9 11.9 0 0 1-.159 1.528c-.083.48-.215.92-.392 1.325a3.617 3.617 0 0 1-.732 1.075c-.306.302-.634.54-.993.72a4.723 4.723 0 0 1-2.132.502 6.297 6.297 0 0 1-.849-.052 3.987 3.987 0 0 1-1.981-.876 3.92 3.92 0 0 1-.744-.792 4.31 4.31 0 0 1-.554-1.102c-.155-.43-.268-.947-.347-1.547a16.46 16.46 0 0 1-.121-2.129v-3.17-1.75c0-.483 0-.89.003-1.22 0-.324.005-.599.009-.818 0-.219.007-.408.01-.566l.023-.445c.015-.393.087-.695.208-.902.12-.204.332-.336.63-.389.132-.022.241-.041.336-.053.094-.011.2-.014.32-.014a.728.728 0 0 0 .268-.042.17.17 0 0 0 .095-.163c0-.079-.042-.131-.12-.162a1.183 1.183 0 0 0-.378-.041c-.208 0-.442.003-.702.01-.26.005-.525.016-.793.023-.268.008-.513.015-.74.024a17.265 17.265 0 0 1-1.44-.009 84.415 84.415 0 0 0-1.175-.03c-.422-.01-.834-.018-1.241-.018a1.074 1.074 0 0 0-.377.041c-.08.03-.121.083-.121.162 0 .076.034.132.098.163a.818.818 0 0 0 .287.042c.166 0 .328.003.494.014.162.012.295.03.389.053.245.05.438.129.574.234a.848.848 0 0 1 .294.415c.057.17.094.385.105.642l.023.445c.004.158.011.347.011.566.004.22.008.494.008.819.004.328.004.736.004 1.219v5.056zm28.844 7.563c.4 0 .808-.026 1.215-.08.408-.056.815-.15 1.215-.286.4-.136.793-.325 1.17-.563.54-.358.966-.758 1.276-1.204a4.42 4.42 0 0 0 .664-1.365c.128-.472.192-.928.189-1.37a5.547 5.547 0 0 0-.197-1.521 5.132 5.132 0 0 0-.634-1.4 7.959 7.959 0 0 0-1.147-1.385 17.32 17.32 0 0 0-1.736-1.468l-.634-.475c-.622-.472-1.105-.887-1.456-1.25-.351-.362-.596-.701-.74-1.018a2.398 2.398 0 0 1-.204-.993c.004-.457.11-.86.325-1.207.215-.351.524-.623.928-.823.4-.196.88-.298 1.442-.302.487.004.894.068 1.219.193.324.12.585.268.785.437.2.17.354.329.464.48.158.2.279.4.366.604.083.203.143.384.177.543.03.159.05.275.045.347a.7.7 0 0 0 .053.306.185.185 0 0 0 .174.102c.09.003.154-.05.192-.155.038-.102.057-.28.057-.525 0-.584.008-1.06.023-1.426.015-.362.03-.645.045-.85.015-.2.022-.346.022-.44 0-.08-.026-.14-.082-.178a.6.6 0 0 0-.235-.094c-.29-.087-.683-.17-1.173-.253-.494-.083-1.106-.125-1.838-.132-.789.003-1.505.11-2.143.317a5.021 5.021 0 0 0-1.653.886c-.46.386-.811.834-1.06 1.355a4.056 4.056 0 0 0-.374 1.721c-.004.607.102 1.2.317 1.774.215.573.566 1.154 1.056 1.743.495.589 1.152 1.204 1.978 1.849l1.041.815c.468.366.846.71 1.14 1.03.294.321.517.627.675.917.155.29.264.574.321.85.06.275.087.55.083.826 0 .305-.06.607-.188.909a2.556 2.556 0 0 1-.563.83 2.8 2.8 0 0 1-.947.608c-.381.151-.826.23-1.336.234a4.036 4.036 0 0 1-1.35-.219 2.898 2.898 0 0 1-1.14-.732c-.329-.336-.578-.781-.748-1.336a6.223 6.223 0 0 1-.143-.611 3.194 3.194 0 0 1-.06-.544.64.64 0 0 0-.038-.26c-.027-.08-.09-.12-.19-.125-.09.004-.154.061-.195.167-.042.109-.064.248-.075.422-.008.095-.015.242-.027.442-.011.2-.026.437-.038.71a28.72 28.72 0 0 0-.034.878c-.011.31-.015.623-.015.936 0 .163.008.291.03.385.023.095.065.17.129.226.06.057.15.11.272.159.482.212.988.366 1.524.457.536.09 1.128.136 1.781.132zm20.649-6.883c0 .698 0 1.35-.004 1.966a70.281 70.281 0 0 1-.03 1.645c-.016.487-.042.89-.08 1.212-.03.332-.09.61-.184.834-.095.222-.25.362-.472.41a4.316 4.316 0 0 1-.355.064c-.136.016-.29.027-.46.027-.133 0-.227.015-.283.05a.145.145 0 0 0-.08.132c0 .079.038.135.117.173.076.034.19.053.336.053.23 0 .483-.004.755-.011l.815-.023.747-.022a15.538 15.538 0 0 1 1.408.007c.366.011.777.019 1.237.03.46.011.944.019 1.445.019.129 0 .231-.019.31-.053.08-.038.117-.094.12-.173 0-.057-.03-.102-.086-.132a.574.574 0 0 0-.275-.05c-.114 0-.242-.004-.381-.011l-.408-.034c-.136-.015-.256-.03-.366-.045-.222-.03-.396-.102-.517-.215a.951.951 0 0 1-.256-.43 2.797 2.797 0 0 1-.11-.578 15.126 15.126 0 0 1-.08-1.226 68.747 68.747 0 0 1-.03-1.653c-.003-.615-.003-1.268-.003-1.966v-9.283l2.853.068c.668.018 1.192.09 1.577.218.389.125.664.284.83.468.166.189.257.381.264.581l.023.25c.011.166.03.283.064.354.038.068.098.099.185.099.068 0 .113-.035.143-.099.03-.06.05-.15.06-.264 0-.154.005-.351.012-.592a290.126 290.126 0 0 0 .045-1.506 15.7 15.7 0 0 0 .012-.528c.003-.17-.008-.291-.03-.366-.023-.076-.076-.11-.151-.11-.046 0-.114.011-.211.03-.1.023-.231.05-.4.083-.167.023-.382.05-.639.072-.252.026-.562.038-.924.042h-8.966c-.25 0-.51-.004-.774-.016a25.086 25.086 0 0 1-.777-.037c-.253-.02-.49-.038-.713-.06a2.208 2.208 0 0 1-.465-.091 2.978 2.978 0 0 1-.302-.12.565.565 0 0 0-.207-.061c-.068 0-.12.034-.162.105a1.202 1.202 0 0 0-.11.325c-.011.041-.03.144-.068.306l-.116.584c-.05.226-.09.457-.136.69-.046.235-.08.447-.11.631-.03.185-.045.314-.045.393a.65.65 0 0 0 .041.275c.03.057.084.087.163.087.067 0 .12-.023.158-.068a.512.512 0 0 0 .09-.203c.023-.091.065-.205.125-.336a3.13 3.13 0 0 1 .26-.457c.11-.166.254-.29.43-.381.174-.091.405-.155.691-.196a9.24 9.24 0 0 1 1.076-.08l3.374-.09v9.283zm-164.213 6.883c1.15-.004 2.214-.159 3.184-.468a8.945 8.945 0 0 0 2.6-1.306 8.538 8.538 0 0 0 1.947-2.003c.532-.77.94-1.62 1.22-2.552.279-.928.422-1.913.422-2.954-.004-1.302-.215-2.472-.638-3.51a7.287 7.287 0 0 0-1.823-2.668c-.792-.74-1.754-1.305-2.88-1.698-1.123-.393-2.391-.589-3.806-.592-1.133.003-2.148.132-3.05.389-.905.252-1.701.603-2.392 1.052a7.987 7.987 0 0 0-1.781 1.544 8.742 8.742 0 0 0-1.215 1.868 9.291 9.291 0 0 0-.69 2.019 9.309 9.309 0 0 0-.223 2.003 9.63 9.63 0 0 0 .92 4.083c.314.66.717 1.28 1.204 1.857a7.96 7.96 0 0 0 1.748 1.524 8.337 8.337 0 0 0 2.32 1.03c.872.25 1.85.378 2.933.382zm.95-1.132c-.872-.004-1.668-.148-2.392-.427a6.071 6.071 0 0 1-1.932-1.188 7.038 7.038 0 0 1-1.43-1.823 9.09 9.09 0 0 1-.891-2.321 11.405 11.405 0 0 1-.306-2.687c.004-1.124.113-2.09.328-2.902.215-.811.51-1.486.883-2.03.374-.54.797-.97 1.272-1.283a4.87 4.87 0 0 1 1.51-.675 6.09 6.09 0 0 1 1.577-.196 6.077 6.077 0 0 1 2.604.57c.8.377 1.501.924 2.106 1.637.603.713 1.071 1.577 1.41 2.589.337 1.011.51 2.15.514 3.422-.004 1.087-.098 2.023-.28 2.816-.18.788-.422 1.452-.728 1.988-.305.54-.649.974-1.022 1.306a4.455 4.455 0 0 1-1.155.762c-.396.173-.77.29-1.128.355-.359.06-.672.09-.94.087zm19.675-5.751c0 .698 0 1.35-.004 1.966a70.281 70.281 0 0 1-.03 1.645c-.015.487-.042.89-.08 1.212a4.737 4.737 0 0 1-.109.595c-.045.174-.11.321-.196.43a.556.556 0 0 1-.351.22 4.316 4.316 0 0 1-.355.063c-.136.016-.29.027-.46.027-.132 0-.227.015-.283.05a.145.145 0 0 0-.08.132c0 .079.039.135.117.173.076.034.19.053.337.053.23 0 .483-.004.754-.011l.815-.023.748-.022a15.513 15.513 0 0 1 1.377.007c.358.011.766.019 1.226.03.457.011.94.019 1.442.019a.78.78 0 0 0 .309-.053c.08-.038.117-.094.12-.173 0-.057-.029-.102-.086-.132a.57.57 0 0 0-.275-.05c-.114 0-.242-.004-.381-.011l-.408-.034c-.136-.015-.256-.03-.366-.045a.947.947 0 0 1-.517-.215.956.956 0 0 1-.256-.43 2.765 2.765 0 0 1-.11-.578 15.096 15.096 0 0 1-.08-1.226 68.744 68.744 0 0 1-.03-1.653c-.003-.615-.003-1.268-.003-1.966v-9.057c0-.125.014-.222.049-.29a.24.24 0 0 1 .132-.14 1.86 1.86 0 0 1 .393-.072 5.09 5.09 0 0 1 .49-.019c.178-.003.389.02.638.06a3.364 3.364 0 0 1 1.626.823c.314.287.562.585.743.902.181.317.317.63.4.94.087.31.14.6.163.868.022.268.034.498.03.686a4.15 4.15 0 0 1-.294 1.559c-.193.46-.442.853-.747 1.174a3.403 3.403 0 0 1-.985.743c-.347.174-.683.26-1.008.26-.234 0-.4.02-.495.057-.098.038-.143.102-.14.193.005.075.035.128.096.15a.59.59 0 0 0 .177.053c.064.012.143.02.237.02.099.003.178.003.238.003a6.14 6.14 0 0 0 2.227-.404 5.264 5.264 0 0 0 1.765-1.132 5.113 5.113 0 0 0 1.16-1.732c.274-.668.414-1.404.418-2.211a3.64 3.64 0 0 0-.181-1.129 4.321 4.321 0 0 0-.434-.924 3.44 3.44 0 0 0-.517-.641 4.086 4.086 0 0 0-.412-.348 4.053 4.053 0 0 0-.77-.426c-.32-.144-.732-.264-1.23-.363a9.666 9.666 0 0 0-1.8-.154c-.35 0-.72.007-1.105.019-.389.007-.77.018-1.143.03-.378.011-.721.019-1.034.019-.22 0-.506-.008-.861-.02a79.64 79.64 0 0 0-1.162-.03c-.42-.01-.83-.018-1.238-.018a1.074 1.074 0 0 0-.377.041c-.08.03-.121.083-.121.162 0 .076.034.132.098.163a.815.815 0 0 0 .287.042c.166 0 .329.003.495.014.162.012.293.03.388.053.245.05.438.129.573.234a.852.852 0 0 1 .295.415c.056.17.094.385.106.642l.022.445c.004.158.012.347.015.566 0 .22.004.494.004.819.004.328.004.736.004 1.219V162.815zm21.35 0c0 .698 0 1.35-.004 1.966a67.633 67.633 0 0 1-.03 1.645c-.015.487-.042.89-.08 1.212a4.483 4.483 0 0 1-.109.592c-.045.177-.109.32-.196.434a.556.556 0 0 1-.35.219c-.103.022-.22.045-.355.063-.136.016-.291.027-.461.027-.132 0-.226.015-.283.05a.145.145 0 0 0-.08.132c0 .079.038.135.118.173a.85.85 0 0 0 .336.053c.23-.004.483-.011.754-.023.276-.015.544-.022.808-.022.275-.011.528-.02.754-.02.23-.003.408-.003.536-.003.336 0 .691.003 1.068.015.378.011.804.03 1.287.053l1.687.041c.641.015 1.385.027 2.23.027.283.003.506-.004.664-.023a.59.59 0 0 0 .362-.151c.084-.083.148-.222.197-.415.03-.117.06-.29.094-.51a23.035 23.035 0 0 0 .17-1.457c.018-.23.03-.41.03-.546a1.046 1.046 0 0 0-.023-.287c-.019-.08-.071-.117-.158-.12-.075 0-.132.022-.166.075a.696.696 0 0 0-.083.264c-.076.46-.192.818-.347 1.083-.159.264-.382.46-.672.592-.2.09-.426.151-.683.193a6.5 6.5 0 0 1-.762.068c-.253.01-.483.01-.683.01a9.363 9.363 0 0 1-1.393-.074c-.354-.057-.626-.151-.815-.29a1.07 1.07 0 0 1-.392-.582c-.072-.25-.11-.566-.117-.955a18.412 18.412 0 0 1-.008-.543c-.004-.227-.004-.48-.004-.755.004-.275.004-.55.004-.834.004-.279.004-.54.004-.78.004-.243.004-.439.004-.597v-1.79c0-.067.007-.123.026-.165.019-.038.053-.06.11-.06.113 0 .279 0 .502.003.222 0 .467.004.739.008l.811.011c.268.008.51.012.717.02.208.007.355.015.446.026.28.03.502.086.675.17.174.079.306.18.4.301.095.12.158.26.193.412.034.147.053.294.064.434.007.14.019.267.026.38 0 .057.015.106.042.144.03.038.083.06.162.06.068-.003.113-.026.143-.071a.382.382 0 0 0 .053-.166c.008-.068.008-.132.008-.193 0-.041.003-.124.011-.241l.027-.408c.007-.155.018-.31.03-.464.007-.15.015-.287.022-.404.03-.38.06-.687.087-.913.027-.226.05-.396.068-.506.019-.113.026-.192.026-.234 0-.068-.015-.113-.045-.143a.163.163 0 0 0-.113-.038c-.053 0-.11.027-.162.08-.057.053-.121.124-.2.215a.863.863 0 0 1-.416.237c-.177.05-.4.083-.671.102-.11.008-.287.015-.529.023-.24.004-.52.011-.826.011-.31.004-.619.008-.928.008-.306.004-.581.004-.823.004h-.517c-.068 0-.11-.023-.132-.065a.43.43 0 0 1-.026-.185v-5.728c0-.08.01-.135.038-.173.022-.038.064-.053.12-.053a64.092 64.092 0 0 1 1.215.019 56.854 56.854 0 0 1 1.563.045c.211.008.355.015.437.027.374.045.66.105.86.18.204.076.351.167.446.272.094.106.166.227.211.363.038.09.068.192.087.297.02.102.034.205.038.295.007.094.011.166.011.222a.54.54 0 0 0 .042.235c.03.052.083.082.162.082.08-.003.132-.03.166-.082a.437.437 0 0 0 .06-.166c.012-.072.023-.178.035-.318.01-.14.022-.286.03-.449.01-.158.018-.306.03-.437.007-.133.015-.23.019-.29.022-.344.049-.612.075-.812a7.16 7.16 0 0 1 .076-.442c.019-.098.03-.17.03-.219a.322.322 0 0 0-.027-.143c-.019-.038-.052-.06-.11-.06a.674.674 0 0 0-.18.037c-.064.023-.124.038-.181.053a4.166 4.166 0 0 1-.393.068c-.17.023-.362.045-.581.068-.076.003-.249.007-.517.007-.268.005-.596.008-.98.008-.386.004-.793.004-1.224.004-.43 0-.845.004-1.245.004h-1.694c-.163 0-.366-.004-.611-.016-.246-.007-.518-.019-.816-.03-.287 0-.585-.003-.898-.011a39.274 39.274 0 0 0-.936-.011c-.17 0-.294.01-.377.041-.08.03-.12.083-.12.162 0 .076.033.132.098.163a.813.813 0 0 0 .286.042c.166 0 .328.003.494.014.162.012.295.03.389.053.245.053.438.129.574.234a.874.874 0 0 1 .294.415c.056.174.094.385.105.642.008.14.016.29.023.445.004.158.011.347.015.566 0 .22.004.494.004.823.004.324.004.732.004 1.215V162.815zm30.633 0c0 .698 0 1.35-.004 1.966a65.181 65.181 0 0 1-.03 1.645c-.015.487-.041.89-.08 1.212-.03.332-.09.61-.184.834-.095.222-.249.362-.472.41a4.316 4.316 0 0 1-.354.064c-.136.016-.291.027-.461.027-.132 0-.226.015-.283.05a.145.145 0 0 0-.08.132c0 .079.038.135.118.173a.851.851 0 0 0 .336.053c.23 0 .483-.004.754-.011l.816-.023.747-.022a15.488 15.488 0 0 1 1.407.007c.366.011.778.019 1.238.03.46.011.944.019 1.446.019.127 0 .23-.019.309-.053.08-.038.117-.094.12-.173 0-.057-.03-.102-.086-.132a.57.57 0 0 0-.276-.05c-.113 0-.241-.004-.38-.011l-.409-.034c-.135-.015-.256-.03-.366-.045-.222-.03-.396-.102-.517-.215a.951.951 0 0 1-.256-.43 2.765 2.765 0 0 1-.11-.578 14.68 14.68 0 0 1-.078-1.226 63.895 63.895 0 0 1-.03-1.653c-.005-.615-.005-1.268-.005-1.966v-9.283l2.853.068c.668.018 1.193.09 1.577.218.39.125.664.284.83.468.167.189.257.381.265.581l.022.25c.012.166.03.283.064.354.039.068.099.099.185.099.069 0 .114-.035.144-.099.03-.06.049-.15.06-.264 0-.154.004-.351.012-.592a290.126 290.126 0 0 0 .045-1.506c.007-.226.011-.404.011-.528.004-.17-.007-.291-.03-.366-.022-.076-.076-.11-.151-.11-.045 0-.113.011-.211.03-.098.023-.23.05-.4.083-.167.023-.381.05-.638.072a10.13 10.13 0 0 1-.924.042h-8.967c-.249 0-.509-.004-.773-.016a25.01 25.01 0 0 1-.778-.037c-.252-.02-.49-.038-.713-.06a2.201 2.201 0 0 1-.464-.091 3.076 3.076 0 0 1-.302-.12.562.562 0 0 0-.208-.061c-.067 0-.12.034-.162.105a1.187 1.187 0 0 0-.109.325c-.011.041-.03.144-.068.306-.034.162-.072.358-.117.584-.049.226-.09.457-.136.69-.045.235-.079.447-.11.631-.03.185-.044.314-.044.393 0 .124.011.215.04.275.031.057.084.087.163.087.068 0 .12-.023.159-.068a.512.512 0 0 0 .09-.203c.023-.091.064-.205.125-.336a3.13 3.13 0 0 1 .26-.457c.11-.166.253-.29.43-.381.174-.091.404-.155.691-.196a9.223 9.223 0 0 1 1.076-.08l3.373-.09v9.283z"/>
        <mask id="c" fill="#fff">
            <use xlink:href="#a"/>
        </mask>
        <path fill="url(#b)" d="M150.614 77.952c-2.509-6.836-9.44-5.317-14.68-3.996l-.952.327c2.425 3.612 8.372 3.326 10.226 3.42-6.359 1.463-8.414.035-11.368-2.266 3.209 9.36 9.44 7.03 16.774 2.515zM95.017 40.753c5.153 2.176 2.806 4.908 4.057 7.698-2.05-.655-3.094-3.964-3.394-4.831.18 3.221 1.14 4.002 2.64 5.088-4.888-.237-4.98-3.492-3.303-7.955zm-4.095-17.81c8.808 6.227 3.257 10.405 4.46 16.177-3.589-2.082-4.19-8.745-4.395-10.504-.994 6.143.493 8.01 2.867 10.677-4.287-1.162-6.295-3.144-6.7-5.72-4.992-.81-7.696-7.174-8.736-9.077 1.702 7.492 4.267 8.941 8.218 10.898-11.567 1.384-14.657-3.432-11.246-16.504 8.645-.076 7.613 8.059 11.734 14.469-.347-2.863 1.215-6.434 3.798-10.416zm10.438 8.35c5.653 5.134 1.393 7.592 1.743 11.751-2.343-1.77-2.193-6.505-2.186-7.758-1.227 4.23-.342 5.67 1.097 7.749-6.188-2.518-4.834-6.752-.654-11.741zm.438-20.68c6.857 5.062 1.072 10.87.648 18.403-3.525-3.532-1.879-10.159-1.573-12.266-3.06 6.829-1.91 9.46.02 13.294-9.816-5.693-9.402-11.25.905-19.431zm-17.1 26.08c7.367 2.008 4.687 6.131 6.887 9.679-2.892-.515-4.907-4.801-5.47-5.921.828 4.327 2.27 5.208 4.494 6.407-6.656.564-7.37-3.823-5.911-10.165zm-.037 11.2c5.54.77 3.98 4.016 5.91 6.388-2.15-.104-4.014-3.03-4.528-3.79 1.006 3.066 2.135 3.571 3.864 4.233-4.782 1.034-5.712-2.087-5.246-6.83zM72.598 34.83c10.639 1.781 7.454 7.956 11.047 12.631-4.137-.315-7.574-6.055-8.524-7.55 1.774 5.965 3.925 7 7.222 8.37-9.275 1.735-10.9-4.33-9.745-13.451zm-17.444 4.412c7.354-4.407 12.58 2.11 16.403 7.196l.632 1.004c-4.893 1.517-10.13-3.144-11.899-4.429 4.745 6.043 7.684 6.255 12.091 6.332-9.862 6.201-13.848-.542-17.227-10.103zm17.789 11.582c7.214-2.504 7.33 2.413 11.15 4.099-2.678 1.208-6.761-1.192-7.858-1.798 3.126 3.103 4.814 3.016 7.327 2.749-5.174 4.225-8.241 1.008-10.62-5.05zM61.424 54.83c9.543-3.311 9.698 3.192 14.748 5.421-3.54 1.599-8.942-1.576-10.393-2.377 4.135 4.104 6.367 3.99 9.692 3.636-6.844 5.588-10.902 1.333-14.047-6.68zm15.69 5.75c4.876-2.74 5.598.788 8.569 1.508-1.773 1.219-5.028.019-5.897-.276 2.656 1.832 3.86 1.55 5.638 1.03-3.182 3.718-5.81 1.797-8.31-2.262zm-8.517 6.717c5.79-5.026 7.735-.486 11.924-.34-2.045 2.125-6.747 1.412-7.996 1.256 4.072 1.727 5.613 1.016 7.856-.172-3.246 5.87-7.307 4.016-11.784-.744zm8.318 7.782c.772-3.923 4.662-3.696 7.618-3.43l.545.095c-1.005 2.168-4.255 2.524-5.252 2.736 3.574.245 4.566-.706 5.97-2.208-.934 5.352-4.515 4.626-8.881 2.807zm-28.933-9.494c5.069-6.914 12.414-2.935 17.91.27l.972.68c-3.922 3.296-10.557 1.032-12.686.534 6.717 3.73 9.508 2.784 13.6 1.146-6.684 9.541-12.974 4.872-19.796-2.63zm11.66 12.367c2.509-6.836 9.44-5.317 14.679-3.996l.953.327c-2.425 3.612-8.372 3.326-10.226 3.42 6.359 1.463 8.414.035 11.368-2.266-3.21 9.36-9.44 7.03-16.774 2.515zm55.76-37.685c-5.152 2.176-2.805 4.908-4.056 7.698 2.049-.655 3.094-3.963 3.393-4.831-.179 3.221-1.14 4.002-2.638 5.089 4.887-.239 4.979-3.493 3.302-7.956zm3.931-17.324c-8.807 6.227-3.256 10.405-4.46 16.177 3.59-2.082 4.19-8.745 4.396-10.504.994 6.143-.493 8.01-2.867 10.677 4.287-1.162 6.295-3.144 6.7-5.72 4.992-.81 7.696-7.174 8.736-9.077-1.702 7.492-4.267 8.941-8.218 10.898 11.567 1.384 14.657-3.432 11.246-16.504-8.645-.076-7.613 8.059-11.734 14.469.347-2.863-1.215-6.434-3.799-10.416zm-10.437 8.35c-5.653 5.134-1.393 7.592-1.743 11.751 2.343-1.77 2.193-6.505 2.186-7.758 1.227 4.23.342 5.67-1.097 7.749 6.188-2.518 4.834-6.752.654-11.741zm-.438-20.68c-6.857 5.062-1.072 10.87-.648 18.403 3.524-3.532 1.879-10.159 1.573-12.266 3.06 6.829 1.91 9.46-.02 13.294 9.816-5.693 9.402-11.25-.905-19.431zm17.1 26.08c-7.367 2.008-4.687 6.131-6.887 9.679 2.892-.515 4.906-4.801 5.47-5.921-.828 4.327-2.27 5.208-4.495 6.407 6.656.564 7.371-3.823 5.912-10.165zm.037 11.2c-5.54.77-3.98 4.016-5.91 6.388 2.15-.104 4.014-3.03 4.528-3.79-1.006 3.066-2.135 3.571-3.865 4.233 4.783 1.034 5.713-2.087 5.247-6.83zm12.063-13.063c-10.639 1.781-7.455 7.956-11.047 12.631 4.137-.315 7.574-6.055 8.523-7.55-1.774 5.965-3.924 7-7.221 8.37 9.275 1.735 10.9-4.33 9.745-13.451zm17.444 4.412c-7.354-4.407-12.58 2.11-16.404 7.196l-.63 1.004c4.891 1.517 10.128-3.144 11.897-4.429-4.744 6.043-7.683 6.255-12.09 6.332 9.862 6.201 13.848-.542 17.227-10.103zm-17.789 11.582c-7.214-2.504-7.331 2.413-11.15 4.099 2.677 1.208 6.761-1.192 7.858-1.798-3.127 3.103-4.814 3.016-7.327 2.749 5.174 4.225 8.241 1.008 10.62-5.05zm11.519 4.006c-9.543-3.311-9.698 3.192-14.749 5.421 3.542 1.599 8.942-1.576 10.394-2.377-4.135 4.104-6.367 3.99-9.692 3.636 6.844 5.588 10.901 1.333 14.047-6.68zm-15.69 5.75c-4.876-2.74-5.598.788-8.57 1.508 1.774 1.219 5.029.019 5.898-.276-2.656 1.832-3.861 1.55-5.638 1.03 3.182 3.718 5.81 1.797 8.31-2.262zm8.517 6.717c-5.79-5.026-7.735-.486-11.924-.34 2.045 2.125 6.747 1.412 7.996 1.256-4.072 1.727-5.613 1.016-7.857-.172 3.247 5.87 7.307 4.016 11.785-.744zm-8.318 7.782c-.773-3.923-4.662-3.696-7.618-3.43l-.545.095c1.005 2.168 4.255 2.524 5.252 2.736-3.574.245-4.566-.706-5.97-2.208.934 5.352 4.515 4.626 8.881 2.807zm28.933-9.494c-5.069-6.914-12.414-2.935-17.91.27l-.972.68c3.922 3.296 10.557 1.032 12.686.534-6.717 3.73-9.508 2.784-13.601 1.146 6.685 9.541 12.975 4.872 19.797-2.63z" mask="url(#c)"/>
    </g>
</svg>
