<svg xmlns="http://www.w3.org/2000/svg" width="70" height="70" viewBox="0 0 70 70">
    <path fill="#529134" fill-rule="nonzero" d="M34.336.746a.746.746 0 0 1 1.493 0V2.24c9.35.228 17.781 4.123 23.915 10.257C66.09 18.842 70 27.592 70 37.27a.793.793 0 0 1-.801.802.777.777 0 0 1-.737-.481c-1.186-2.212-2.66-3.814-4.327-4.84-1.314-.833-2.725-1.282-4.167-1.314-1.442-.064-2.917.288-4.359 1.058-1.891.993-3.686 2.724-5.224 5.192-.257.385-.738.513-1.122.256a.772.772 0 0 1-.32-.32c-.77-1.442-1.988-2.628-3.494-3.59-2.628-1.634-6.09-2.5-9.648-2.596v33.045c0 2.372-1.282 3.878-2.948 4.551a5.224 5.224 0 0 1-1.988.385 5.345 5.345 0 0 1-1.987-.385c-1.634-.673-2.949-2.18-2.949-4.551 0-.449.385-.801.834-.801.449 0 .801.352.801.8 0 1.603.833 2.597 1.923 3.046.449.16.898.256 1.378.256.481 0 .962-.096 1.41-.256 1.058-.449 1.924-1.443 1.924-3.045V31.438c-3.077.128-6.122.865-8.654 2.18-1.891 1.025-3.462 2.371-4.551 4.07-.225.385-.738.513-1.09.256a.625.625 0 0 1-.32-.32c-1.187-2.212-2.66-3.846-4.328-4.872-1.314-.833-2.724-1.282-4.166-1.314-1.443-.064-2.917.288-4.36 1.058-1.858.993-3.685 2.692-5.224 5.16a.761.761 0 0 1-.705.417A.793.793 0 0 1 0 37.27c0-9.68 3.91-18.43 10.256-24.775 6.17-6.17 14.665-10.075 24.08-10.25v-1.5zM35 4.066c-5.192 3.654-8.622 8.526-10.77 14.103-1.954 5.096-2.852 10.769-3.044 16.699 1.026-1.058 2.243-1.956 3.622-2.693 2.948-1.538 6.538-2.34 10.096-2.372h.865c3.878.097 7.66 1.058 10.545 2.853.93.577 1.795 1.282 2.5 2.051-.192-5.865-1.09-11.506-3.045-16.538C43.622 12.592 40.192 7.72 35 4.066zm2.596-.096c4.551 3.718 7.66 8.365 9.68 13.622 2.05 5.256 2.98 11.122 3.173 17.18 1.346-1.667 2.852-2.885 4.423-3.719A10.362 10.362 0 0 1 60 29.803c1.73.065 3.43.577 5 1.57 1.186.706 2.276 1.7 3.237 2.95-.705-8.045-4.23-15.289-9.647-20.673a33.376 33.376 0 0 0-20.994-9.68zm-5.192 0a33.376 33.376 0 0 0-20.994 9.68A33.13 33.13 0 0 0 1.73 34.61c1.315-1.57 2.757-2.756 4.264-3.558a10.399 10.399 0 0 1 5.16-1.25c1.699.065 3.397.577 4.968 1.57 1.25.77 2.404 1.828 3.43 3.174.224-5.994 1.153-11.763 3.172-16.955 2.02-5.257 5.129-9.904 9.68-13.622z"/>
</svg>
