<svg xmlns="http://www.w3.org/2000/svg" width="16" height="16" viewBox="0 0 16 16">
    <g fill="#529134" fill-rule="nonzero">
        <path d="M8 0C3.589 0 0 3.589 0 8s3.589 8 8 8 8-3.589 8-8-3.589-8-8-8zm0 14.857A6.865 6.865 0 0 1 1.143 8 6.865 6.865 0 0 1 8 1.143 6.865 6.865 0 0 1 14.857 8 6.865 6.865 0 0 1 8 14.857z"/>
        <path d="M10.939 7.51h-2.45V5.061a.49.49 0 1 0-.979 0v2.45H5.061a.49.49 0 1 0 0 .979h2.45v2.449a.49.49 0 1 0 .979 0v-2.45h2.449a.49.49 0 1 0 0-.979z"/>
    </g>
</svg>
