<svg xmlns="http://www.w3.org/2000/svg" width="25" height="39" viewBox="0 0 25 39">
    <g fill="none" fill-rule="nonzero" stroke="#FFF" stroke-width="1.25">
        <path d="M10.688 1.017c-.325-.036-1.232.09-1.232 1.028l-.003 8.84c0 .463-.393.834-.877.832-.49.002-.882-.37-.882-.833V2.147c0-.826-.743-1.145-1.152-1.147-.454 0-1.259.137-1.259 1.15v8.661c-.003.462-.394.831-.879.83-.49 0-.883-.369-.882-.83V2.05c0-.945-.854-1.068-1.168-1.035-.654.07-.981.412-.981 1.264C1.373 3.13 1 8.82 1 12.568c0 4.181 4.047 3.055 4.046 4.7-.002 1.642-.099 10.195-.097 14.044-.003 7.057.233 6.99 1.537 6.993 1.304.004 1.54.065 1.54-6.993 0-3.848-.097-12.396-.097-14.041-.001-1.647 4.046-.465 4.048-4.704 0-2.463-.344-9.537-.344-10.288-.001-.748-.312-1.192-.945-1.262zM17.369 1l-.003 8.456c0 .472-.245 6.696-.244 8.378 0 1.686-.122 9.242-.122 13.18.001 7.223.355 6.815 1.605 6.817 1.253-.002 1.611.405 1.61-6.817 0-3.938-.122-9.282-.122-10.964-.001-2.858 3.678-3.867 3.682-8.207C23.773 9.325 23.515.998 17.369 1z"/>
    </g>
</svg>
