<svg xmlns="http://www.w3.org/2000/svg" width="17" height="32" viewBox="0 0 17 32">
    <path fill="none" fill-rule="evenodd" stroke="#FFF" stroke-width="1.25" d="M13.21 10.368c-.631-.584-1.24-1.023-1.824-1.315-.585-.293-1.251-.439-2-.439-.842 0-1.485.175-1.93.526-.444.351-.667.924-.667 1.72 0 .561.229 1.035.685 1.42.456.387 1.029.755 1.719 1.106.69.35 1.433.713 2.228 1.088.795.374 1.538.83 2.228 1.368a7.037 7.037 0 0 1 1.72 1.947c.456.76.684 1.702.684 2.825 0 1.684-.457 3.129-1.369 4.333-.912 1.205-2.28 2.006-4.105 2.404V31H7.175v-3.509c-1.029-.117-2.11-.403-3.245-.86-1.135-.456-2.111-1.058-2.93-1.806l2.246-3.474c.889.678 1.736 1.187 2.543 1.526.807.34 1.632.509 2.474.509.983 0 1.702-.199 2.158-.597.456-.397.684-1.005.684-1.824 0-.608-.228-1.123-.684-1.544-.456-.421-1.03-.825-1.72-1.21a43.272 43.272 0 0 0-2.227-1.158 12.46 12.46 0 0 1-2.228-1.386 7.354 7.354 0 0 1-1.72-1.895c-.456-.725-.684-1.614-.684-2.667 0-1.73.474-3.163 1.421-4.298.948-1.134 2.252-1.865 3.912-2.193V1h3.404v3.544c1.123.164 2.105.503 2.947 1.017a10.876 10.876 0 0 1 2.281 1.86l-2.596 2.947z"/>
</svg>
