<svg xmlns="http://www.w3.org/2000/svg" width="59" height="26" viewBox="0 0 59 26">
    <path fill="none" fill-rule="nonzero" stroke="#FFF" stroke-width="1.25" d="M10.342 25a3.861 3.861 0 1 1 3.885-3.861A3.877 3.877 0 0 1 10.342 25zm36.18 0a3.861 3.861 0 1 1 3.878-3.861A3.877 3.877 0 0 1 46.523 25zm11.08-6.543c-.29.336-.712.528-1.155.527h-3.814a6.48 6.48 0 0 0-12.684 0H16.397a6.48 6.48 0 0 0-12.676 0h-.228A2.461 2.461 0 0 1 1 16.57V9.493c.02-.738.55-1.362 1.274-1.502l4.718-.928a12.755 12.755 0 0 0 5.072-2.21l3.146-2.28A8.28 8.28 0 0 1 20.062 1h10.521a12.936 12.936 0 0 1 7.077 2.1l6.19 3.97a12.354 12.354 0 0 0 4.316 1.77l3.743.786a6.44 6.44 0 0 1 5.56 5.222l.448 2.446c.079.415-.037.844-.314 1.163z"/>
</svg>
