<svg xmlns="http://www.w3.org/2000/svg" width="68" height="60" viewBox="0 0 68 60">
    <g fill="#529134" fill-rule="nonzero">
        <path d="M34.384.118a.678.678 0 0 0-.765 0L.4 23.076a.672.672 0 1 0 .765 1.107l8.335-5.76v40.135c0 .37.302.673.673.673h47.654a.674.674 0 0 0 .673-.673V18.422l8.335 5.76a.674.674 0 0 0 .765-1.107L34.384.119zm7.84 57.767H25.779V42.404c0-4.533 3.689-8.221 8.221-8.221 4.534 0 8.222 3.688 8.222 8.22l.002 15.482zm14.931 0H43.57V42.404c0-5.277-4.292-9.567-9.569-9.567-5.275 0-9.567 4.291-9.567 9.567v15.48H10.847V17.493L34.002 1.49l23.154 16.002v40.393z"/>
        <path d="M27.172 10.678v9.844c0 .372.302.673.673.673h12.312c.37 0 .673-.301.673-.673v-9.844a.675.675 0 0 0-.673-.673H27.845a.673.673 0 0 0-.673.673zm1.346.673h10.966v8.498H28.518v-8.498z"/>
    </g>
</svg>
