<svg xmlns="http://www.w3.org/2000/svg" width="69" height="70" viewBox="0 0 69 70">
    <path fill="#529134" fill-rule="nonzero" d="M34.125.875C15.289.875 0 16.164 0 35s15.289 34.125 34.125 34.125S68.25 53.836 68.25 35 52.961.875 34.125.875zm-.875 1.777V35c0 .458.417.875.875.875h32.348c-.464 17.484-14.75 31.5-32.348 31.5C16.235 67.375 1.75 52.891 1.75 35c0-17.597 14.016-31.884 31.5-32.348zm1.75 0c8.288.22 15.778 3.545 21.383 8.86C49.244 18.592 42.12 25.747 35 32.867V2.652zm22.613 10.09c5.315 5.605 8.64 13.095 8.86 21.383H36.23l21.383-21.383z"/>
</svg>
